<svg xmlns="http://www.w3.org/2000/svg" viewBox="0 0 200 200">
  <defs><linearGradient id="bg" x1="0" y1="0" x2="1" y2="1"><stop offset="0%" stop-color="#0a1628"/><stop offset="100%" stop-color="#1a2744"/></linearGradient></defs>
  <rect width="200" height="200" rx="24" fill="url(#bg)"/>
  <!-- Face -->
  <circle cx="100" cy="90" r="36" fill="#f5d0a9"/>
  <!-- Hair -->
  <path d="M64 82 Q64 50 100 48 Q136 50 136 82 L130 78 Q130 58 100 56 Q70 58 70 78 Z" fill="#2c2c2c"/>
  <!-- Glasses -->
  <rect x="72" y="82" width="24" height="18" rx="4" fill="none" stroke="#666" stroke-width="2.5"/>
  <rect x="104" y="82" width="24" height="18" rx="4" fill="none" stroke="#666" stroke-width="2.5"/>
  <line x1="96" y1="91" x2="104" y2="91" stroke="#666" stroke-width="2"/>
  <line x1="72" y1="91" x2="66" y2="88" stroke="#666" stroke-width="2"/>
  <line x1="128" y1="91" x2="134" y2="88" stroke="#666" stroke-width="2"/>
  <!-- Eyes behind glasses -->
  <circle cx="84" cy="91" r="3" fill="#2c3e50"/>
  <circle cx="116" cy="91" r="3" fill="#2c3e50"/>
  <!-- Mouth -->
  <path d="M90 108 Q100 114 110 108" fill="none" stroke="#c0392b" stroke-width="2" stroke-linecap="round"/>
  <!-- Collar -->
  <path d="M78 130 L100 145 L122 130" fill="#3498db" stroke="#2980b9" stroke-width="1"/>
  <text x="100" y="175" text-anchor="middle" fill="#ee5a24" font-size="12" font-weight="bold" font-family="sans-serif">🎓 +800 IQ</text>
</svg>
