<svg xmlns="http://www.w3.org/2000/svg" viewBox="0 0 200 200">
  <defs>
    <linearGradient id="bg" x1="0" y1="0" x2="1" y2="1"><stop offset="0%" stop-color="#1a0533"/><stop offset="100%" stop-color="#0a1628"/></linearGradient>
    <radialGradient id="glow"><stop offset="0%" stop-color="#ee5a24" stop-opacity="0.3"/><stop offset="100%" stop-color="transparent"/></radialGradient>
  </defs>
  <rect width="200" height="200" rx="24" fill="url(#bg)"/>
  <circle cx="100" cy="100" r="80" fill="url(#glow)"/>
  <!-- Face -->
  <circle cx="100" cy="95" r="38" fill="#f5d0a9"/>
  <!-- Wild white hair -->
  <path d="M62 80 Q55 55 68 50 Q75 42 85 48 Q90 38 100 42 Q110 36 115 48 Q125 42 132 50 Q145 55 138 80" fill="#e8e8e8" stroke="#ccc" stroke-width="1"/>
  <path d="M62 80 Q58 72 65 65 Q55 75 60 85" fill="#e8e8e8"/>
  <path d="M138 80 Q142 72 135 65 Q145 75 140 85" fill="#e8e8e8"/>
  <!-- Eyes -->
  <ellipse cx="85" cy="92" rx="4" ry="5" fill="#2c3e50"/>
  <ellipse cx="115" cy="92" rx="4" ry="5" fill="#2c3e50"/>
  <circle cx="86" cy="90" r="1.5" fill="#fff"/>
  <circle cx="116" cy="90" r="1.5" fill="#fff"/>
  <!-- Mustache -->
  <path d="M85 106 Q92 112 100 108 Q108 112 115 106 Q110 115 100 112 Q90 115 85 106" fill="#d4d4d4"/>
  <!-- Mouth -->
  <path d="M92 116 Q100 122 108 116" fill="none" stroke="#c0392b" stroke-width="2" stroke-linecap="round"/>
  <!-- Tongue sticking out -->
  <ellipse cx="100" cy="120" rx="5" ry="4" fill="#e74c3c"/>
  <!-- Ears -->
  <ellipse cx="62" cy="95" rx="6" ry="10" fill="#f5d0a9"/>
  <ellipse cx="138" cy="95" rx="6" ry="10" fill="#f5d0a9"/>
  <!-- English flag bow tie -->
  <rect x="90" y="135" width="20" height="12" rx="2" fill="#00247d"/>
  <path d="M90 135 L100 141 L110 135 L100 138 Z" fill="#fff"/>
  <path d="M92 135 L100 140 L108 135" fill="none" stroke="#cf142b" stroke-width="1.5"/>
  <!-- Text -->
  <text x="100" y="175" text-anchor="middle" fill="#ee5a24" font-size="12" font-weight="bold" font-family="sans-serif">🧠 +1000 IQ</text>
</svg>
