<svg xmlns="http://www.w3.org/2000/svg" viewBox="0 0 200 200">
  <defs><linearGradient id="bg" x1="0" y1="0" x2="1" y2="1"><stop offset="0%" stop-color="#1a0533"/><stop offset="100%" stop-color="#2d1b4e"/></linearGradient></defs>
  <rect width="200" height="200" rx="24" fill="url(#bg)"/>
  <!-- Face -->
  <circle cx="100" cy="88" r="36" fill="#f0c89a"/>
  <!-- Spiky hair -->
  <path d="M66 78 L72 45 L80 72 L88 38 L96 68 L100 35 L104 68 L112 38 L120 72 L128 45 L134 78" fill="#1a1a1a"/>
  <!-- Eyes - excited -->
  <path d="M80 85 L88 82 L88 90 Z" fill="#2c3e50"/>
  <path d="M112 85 L120 82 L120 90 Z" fill="#2c3e50"/>
  <!-- Open mouth shouting -->
  <ellipse cx="100" cy="108" rx="12" ry="10" fill="#8e1a1a"/>
  <ellipse cx="100" cy="104" rx="10" ry="3" fill="#e74c3c"/>
  <!-- Teeth -->
  <rect x="93" y="102" width="4" height="5" rx="1" fill="#fff"/>
  <rect x="99" y="102" width="4" height="5" rx="1" fill="#fff"/>
  <rect x="105" y="102" width="3" height="5" rx="1" fill="#fff"/>
  <!-- Sound waves -->
  <path d="M140 88 Q148 92 140 96" fill="none" stroke="#ee5a24" stroke-width="2" opacity="0.7"/>
  <path d="M146 84 Q158 92 146 100" fill="none" stroke="#ee5a24" stroke-width="2" opacity="0.5"/>
  <path d="M152 80 Q168 92 152 104" fill="none" stroke="#ee5a24" stroke-width="2" opacity="0.3"/>
  <!-- Shirt -->
  <path d="M76 128 L100 142 L124 128" fill="#e74c3c"/>
  <text x="100" y="175" text-anchor="middle" fill="#ee5a24" font-size="12" font-weight="bold" font-family="sans-serif">📢 +600 IQ</text>
</svg>
