<svg xmlns="http://www.w3.org/2000/svg" viewBox="0 0 200 200">
  <defs><linearGradient id="bg" x1="0" y1="0" x2="1" y2="1"><stop offset="0%" stop-color="#0a1628"/><stop offset="100%" stop-color="#1a0533"/></linearGradient></defs>
  <rect width="200" height="200" rx="24" fill="url(#bg)"/>
  <circle cx="100" cy="88" r="36" fill="#e8c49a"/>
  <!-- Short spiky hair - iconic -->
  <path d="M68 78 L70 55 L78 72 L82 48 L90 68 L96 44 L100 58 L104 44 L110 68 L118 48 L122 72 L130 55 L132 78" fill="#1a1a1a"/>
  <!-- Eyes - piercing, intense -->
  <path d="M76 86 L88 84 L90 90 L80 90 Z" fill="#2c3e50"/>
  <path d="M110 86 L122 84 L120 90 L110 90 Z" fill="#2c3e50"/>
  <circle cx="86" cy="87" r="1.5" fill="#fff"/>
  <circle cx="114" cy="87" r="1.5" fill="#fff"/>
  <!-- Characteristic mustache - thick, horizontal -->
  <rect x="82" y="102" width="36" height="6" rx="3" fill="#1a1a1a"/>
  <!-- Stern expression -->
  <line x1="90" y1="114" x2="110" y2="114" stroke="#c0392b" stroke-width="2" stroke-linecap="round"/>
  <!-- Long traditional gown -->
  <path d="M68 124 L100 152 L132 124" fill="#2c3e50"/>
  <line x1="100" y1="124" x2="100" y2="152" stroke="#34495e" stroke-width="1"/>
  <!-- Cigarette -->
  <line x1="130" y1="106" x2="148" y2="98" stroke="#d4a056" stroke-width="2.5" stroke-linecap="round"/>
  <ellipse cx="150" cy="97" rx="4" ry="3" fill="#ccc" opacity="0.5"/>
  <!-- Smoke -->
  <path d="M150 94 Q154 88 150 82 Q146 76 150 70" fill="none" stroke="#888" stroke-width="1" opacity="0.3"/>
  <!-- Pen -->
  <line x1="45" y1="130" x2="60" y2="100" stroke="#c8a050" stroke-width="2"/>
  <polygon points="43,132 47,130 45,134" fill="#333"/>
  <text x="100" y="175" text-anchor="middle" fill="#ee5a24" font-size="12" font-weight="bold" font-family="sans-serif">🖊️ +900 IQ</text>
</svg>
