<svg xmlns="http://www.w3.org/2000/svg" viewBox="0 0 200 200">
  <defs><linearGradient id="bg" x1="0" y1="0" x2="1" y2="1"><stop offset="0%" stop-color="#1a0533"/><stop offset="100%" stop-color="#0a1628"/></linearGradient></defs>
  <rect width="200" height="200" rx="24" fill="url(#bg)"/>
  <circle cx="100" cy="88" r="36" fill="#f5d0a9"/>
  <!-- Combed hair -->
  <path d="M66 80 Q66 52 100 50 Q134 52 134 80" fill="#2c2c2c"/>
  <!-- Round glasses -->
  <circle cx="84" cy="86" r="12" fill="none" stroke="#8B6914" stroke-width="2"/>
  <circle cx="116" cy="86" r="12" fill="none" stroke="#8B6914" stroke-width="2"/>
  <line x1="96" y1="86" x2="104" y2="86" stroke="#8B6914" stroke-width="2"/>
  <line x1="72" y1="84" x2="66" y2="80" stroke="#8B6914" stroke-width="2"/>
  <line x1="128" y1="84" x2="134" y2="80" stroke="#8B6914" stroke-width="2"/>
  <!-- Eyes -->
  <circle cx="84" cy="86" r="3" fill="#2c3e50"/>
  <circle cx="116" cy="86" r="3" fill="#2c3e50"/>
  <!-- Knowing smile -->
  <path d="M90 108 Q100 114 110 108" fill="none" stroke="#c0392b" stroke-width="2" stroke-linecap="round"/>
  <!-- Book in hand -->
  <rect x="135" y="75" width="22" height="30" rx="2" fill="#8B4513"/>
  <rect x="137" y="77" width="18" height="26" rx="1" fill="#d4a056"/>
  <line x1="146" y1="77" x2="146" y2="103" stroke="#8B4513" stroke-width="1"/>
  <!-- Suit -->
  <path d="M72 128 L100 148 L128 128" fill="#2c3e50"/>
  <text x="100" y="175" text-anchor="middle" fill="#ee5a24" font-size="12" font-weight="bold" font-family="sans-serif">📖 +1000 IQ</text>
</svg>
