<svg xmlns="http://www.w3.org/2000/svg" viewBox="0 0 200 200">
  <defs><linearGradient id="bg" x1="0" y1="0" x2="1" y2="1"><stop offset="0%" stop-color="#0a1628"/><stop offset="100%" stop-color="#162040"/></linearGradient></defs>
  <rect width="200" height="200" rx="24" fill="url(#bg)"/>
  <circle cx="100" cy="88" r="36" fill="#e8c49a"/>
  <!-- Short simple hair -->
  <path d="M68 80 Q68 54 100 52 Q132 54 132 80" fill="#1a1a1a"/>
  <!-- Eyes - calm -->
  <ellipse cx="84" cy="86" rx="3.5" ry="4" fill="#2c3e50"/>
  <ellipse cx="116" cy="86" rx="3.5" ry="4" fill="#2c3e50"/>
  <!-- Neutral expression -->
  <line x1="90" y1="108" x2="110" y2="108" stroke="#c0392b" stroke-width="2" stroke-linecap="round"/>
  <!-- Simple hoodie -->
  <path d="M68 122 Q84 130 100 128 Q116 130 132 122 L132 150 L68 150 Z" fill="#555"/>
  <path d="M88 122 Q100 128 112 122" fill="none" stroke="#444" stroke-width="2"/>
  <!-- Water bottle -->
  <rect x="138" y="90" width="16" height="35" rx="4" fill="#3498db" opacity="0.8"/>
  <rect x="141" y="86" width="10" height="8" rx="2" fill="#2980b9"/>
  <!-- Math formulas -->
  <text x="40" y="55" fill="#ee5a24" font-size="11" opacity="0.5" font-family="serif">∇×E=-∂B/∂t</text>
  <text x="130" y="45" fill="#f0932b" font-size="10" opacity="0.4" font-family="serif">ζ(3)</text>
  <text x="100" y="175" text-anchor="middle" fill="#ee5a24" font-size="12" font-weight="bold" font-family="sans-serif">🏆 +1500 IQ</text>
</svg>
