<svg xmlns="http://www.w3.org/2000/svg" viewBox="0 0 200 200">
  <defs><linearGradient id="bg" x1="0" y1="0" x2="1" y2="1"><stop offset="0%" stop-color="#0a1628"/><stop offset="100%" stop-color="#1a2744"/></linearGradient></defs>
  <rect width="200" height="200" rx="24" fill="url(#bg)"/>
  <circle cx="100" cy="88" r="36" fill="#d4a574"/>
  <!-- Straw hat -->
  <ellipse cx="100" cy="58" rx="48" ry="12" fill="#d4a056"/>
  <path d="M70 58 Q70 38 100 35 Q130 38 130 58" fill="#c89840"/>
  <rect x="80" y="50" width="40" height="10" rx="2" fill="#b88830"/>
  <!-- Face under hat -->
  <path d="M72 82 Q72 62 100 60 Q128 62 128 82" fill="#d4a574"/>
  <!-- Eyes - warm -->
  <ellipse cx="86" cy="86" rx="3" ry="3.5" fill="#2c3e50"/>
  <ellipse cx="114" cy="86" rx="3" ry="3.5" fill="#2c3e50"/>
  <!-- Crow's feet smile lines -->
  <path d="M78 84 Q76 80 74 82" fill="none" stroke="#b8946a" stroke-width="1"/>
  <path d="M122 84 Q124 80 126 82" fill="none" stroke="#b8946a" stroke-width="1"/>
  <!-- Big warm smile -->
  <path d="M86 104 Q100 118 114 104" fill="none" stroke="#c0392b" stroke-width="2.5" stroke-linecap="round"/>
  <!-- Rolled up sleeves shirt -->
  <path d="M68 124 L100 146 L132 124" fill="#f5f0e0"/>
  <rect x="64" y="124" width="12" height="10" rx="2" fill="#f5f0e0"/>
  <rect x="124" y="124" width="12" height="10" rx="2" fill="#f5f0e0"/>
  <!-- Rice stalks -->
  <path d="M145 110 Q148 95 150 80" fill="none" stroke="#8BC34A" stroke-width="2"/>
  <ellipse cx="150" cy="78" rx="3" ry="6" fill="#FFC107" transform="rotate(15 150 78)"/>
  <ellipse cx="153" cy="82" rx="3" ry="6" fill="#FFC107" transform="rotate(30 153 82)"/>
  <path d="M152 112 Q155 97 157 82" fill="none" stroke="#8BC34A" stroke-width="2"/>
  <ellipse cx="157" cy="80" rx="3" ry="6" fill="#FFC107" transform="rotate(-10 157 80)"/>
  <text x="100" y="175" text-anchor="middle" fill="#ee5a24" font-size="12" font-weight="bold" font-family="sans-serif">🌾 +1600 IQ</text>
</svg>
