<svg xmlns="http://www.w3.org/2000/svg" viewBox="0 0 200 200">
  <defs><linearGradient id="bg" x1="0" y1="0" x2="1" y2="1"><stop offset="0%" stop-color="#0a1628"/><stop offset="100%" stop-color="#1a0533"/></linearGradient></defs>
  <rect width="200" height="200" rx="24" fill="url(#bg)"/>
  <circle cx="100" cy="90" r="36" fill="#f0c89a"/>
  <!-- Ancient Chinese hat -->
  <path d="M68 78 L100 40 L132 78" fill="#1a1a1a"/>
  <rect x="68" y="76" width="64" height="8" fill="#1a1a1a"/>
  <!-- Eyes -->
  <ellipse cx="86" cy="88" rx="3.5" ry="4.5" fill="#2c3e50"/>
  <ellipse cx="114" cy="88" rx="3.5" ry="4.5" fill="#2c3e50"/>
  <!-- Thin mustache -->
  <path d="M88 104 Q95 107 100 105 Q105 107 112 104" fill="none" stroke="#555" stroke-width="1.5"/>
  <!-- Goatee -->
  <path d="M96 112 Q100 120 104 112" fill="#555"/>
  <!-- Ancient robe -->
  <path d="M68 128 L100 152 L132 128" fill="#2c3e50"/>
  <path d="M68 128 Q84 135 100 128" fill="#34495e"/>
  <!-- Pi symbol -->
  <text x="46" y="70" fill="#ffd700" font-size="22" opacity="0.7" font-family="serif">π</text>
  <text x="140" y="70" fill="#ffd700" font-size="18" opacity="0.5" font-family="serif">=3.14</text>
  <text x="100" y="175" text-anchor="middle" fill="#ee5a24" font-size="12" font-weight="bold" font-family="sans-serif">📏 +500 IQ</text>
</svg>
